# xmcd
#
# Track frame offsets:
#	150
#	12045
#	23143
#	36374
#	49348
#	64530
#	86631
#	101431
#	113167
#	126088
#	140618
#	154438
#
# Disc length: 2287 seconds
#
# Revision: 1
# Processed by: cddbd v1.5.2PL0 Copyright (c) Steve Scherf et al.
# Submitted via: audiograbber 1.83.01
#
DISCID=9d08ed0c
DTITLE=Wilson Pickett - Right On
DYEAR=1970
DGENRE=Southern Soul
TTITLE0=Groovy Little Woman
TTITLE1=Funky Way
TTITLE2=Sugar, Sugar
TTITLE3=Sweet Inspiration
TTITLE4=This Old Town
TTITLE5=You Keep Me Hangin' On
TTITLE6=Lord, Pity Us All
TTITLE7=It's Still Good
TTITLE8=Woman Likes To Hear That
TTITLE9=She Said Yes
TTITLE10=Hey Joe
TTITLE11=Steal Away
EXTD=
EXTT0=
EXTT1=
EXTT2=
EXTT3=
EXTT4=
EXTT5=
EXTT6=
EXTT7=
EXTT8=
EXTT9=
EXTT10=
EXTT11=
PLAYORDER=
